/* XPM */
static char *exit[] = {
/* columns rows colors chars-per-pixel */
"60 60 235 2 ",
"   c #2B291E",
".  c #39281D",
"X  c #1F1B25",
"o  c #241C23",
"O  c #1D2F3D",
"+  c #16383A",
"@  c #392A28",
"#  c #273628",
"$  c #373628",
"%  c #243639",
"&  c #31302F",
"*  c #102C1E",
"=  c #60281B",
"-  c #472B25",
";  c #47332C",
":  c #5D372C",
">  c #51312A",
",  c #693529",
"<  c #7A3E29",
"1  c #723C33",
"2  c #582B1D",
"3  c #1B453A",
"4  c #14463C",
"5  c #0F433A",
"6  c #22483E",
"7  c #3E4238",
"8  c #484437",
"9  c #574138",
"0  c #654537",
"q  c #784839",
"w  c #1F3243",
"e  c #273648",
"r  c #363647",
"t  c #4C3E43",
"y  c #164941",
"u  c #1F5949",
"i  c #254847",
"p  c #304447",
"a  c #24574B",
"s  c #284652",
"d  c #38435A",
"f  c #265A54",
"g  c #395759",
"h  c #3F5C47",
"j  c #1B6B5C",
"k  c #1D715F",
"l  c #24675A",
"z  c #3E4D6A",
"x  c #3B4C65",
"c  c #385566",
"v  c #2A5A62",
"b  c #1A766C",
"n  c #1B7869",
"m  c #1D7B72",
"M  c #1A6F64",
"N  c #29686A",
"B  c #346769",
"V  c #24766B",
"C  c #377769",
"Z  c #396773",
"A  c #217C74",
"S  c #2B7D79",
"D  c #36777A",
"F  c #2E6E72",
"G  c #48424A",
"H  c #4E4F53",
"J  c #7C5145",
"K  c #444C66",
"L  c #434D6B",
"P  c #444A68",
"I  c #43506D",
"U  c #465568",
"Y  c #595A68",
"T  c #495674",
"R  c #525D78",
"E  c #605D63",
"W  c #4A6877",
"Q  c #566776",
"!  c #57767C",
"~  c #4C7068",
"^  c #656779",
"/  c #76747C",
"(  c #616C58",
")  c #914A2E",
"_  c #8C4A33",
"`  c #854B39",
"'  c #8B4A3C",
"]  c #864837",
"[  c #924D31",
"{  c #915338",
"}  c #A45B3D",
"|  c #875747",
" . c #935B4A",
".. c #89534A",
"X. c #A35D43",
"o. c #99614A",
"O. c #AC6344",
"+. c #AC674A",
"@. c #B66B4A",
"#. c #BD714C",
"$. c #B4704F",
"%. c #B97657",
"&. c #AD7157",
"*. c #85706E",
"=. c #C1714E",
"-. c #C87D5A",
";. c #1F8275",
":. c #3C816D",
">. c #26827A",
",. c #29887C",
"<. c #32867A",
"1. c #2F9C7B",
"2. c #469879",
"3. c #529276",
"4. c #7C8878",
"5. c #B28169",
"6. c #8D967F",
"7. c #CA8459",
"8. c #D78E5F",
"9. c #D68D63",
"0. c #DD9265",
"q. c #DC9668",
"w. c #C68663",
"e. c #E49B66",
"r. c #E59B6A",
"t. c #E89C6A",
"y. c #E39666",
"u. c #E19D70",
"i. c #D9AC6E",
"p. c #DCC07F",
"a. c #596885",
"s. c #5F6E92",
"d. c #517288",
"f. c #656C88",
"g. c #65738E",
"h. c #68728A",
"j. c #666F91",
"k. c #647394",
"l. c #697392",
"z. c #717B8F",
"x. c #2B8B83",
"c. c #298986",
"v. c #348B87",
"b. c #2E948C",
"n. c #2E9688",
"m. c #34948C",
"M. c #3B948C",
"N. c #329B8C",
"B. c #399B8D",
"V. c #349884",
"C. c #2E9993",
"Z. c #2F9790",
"A. c #349693",
"S. c #339993",
"D. c #389A95",
"F. c #33999A",
"G. c #379796",
"H. c #36A28D",
"J. c #3BA78E",
"K. c #3BA592",
"L. c #3DAA92",
"P. c #37A491",
"I. c #3FB390",
"U. c #459885",
"Y. c #539986",
"T. c #429996",
"R. c #508F8D",
"E. c #738A8D",
"W. c #56A587",
"Q. c #45A995",
"!. c #58AC97",
"~. c #4CBC9C",
"^. c #48B597",
"/. c #55BE9B",
"(. c #5CBD9C",
"). c #59B697",
"_. c #4BB38E",
"`. c #63BC9C",
"'. c #68B69A",
"]. c #6BA299",
"[. c #7899A9",
"{. c #4EBFA1",
"}. c #58BBA2",
"|. c #69A8A6",
" X c #76A7A9",
".X c #73B8A9",
"XX c #6CBBA7",
"oX c #4EC596",
"OX c #4CC897",
"+X c #4EC599",
"@X c #4DC899",
"#X c #47C39F",
"$X c #51C596",
"%X c #50C598",
"&X c #5BC29B",
"*X c #51C89C",
"=X c #53C795",
"-X c #4BC48F",
";X c #60C19D",
":X c #4EC2A2",
">X c #4BC9A1",
",X c #52C3A2",
"<X c #70C2AE",
"1X c #859390",
"2X c #AC9C8E",
"3X c #90A48C",
"4X c #B7AA94",
"5X c #8997AA",
"6X c #9196AF",
"7X c #8897B3",
"8X c #949CB5",
"9X c #949EBA",
"0X c #8DA2BB",
"qX c #86A7B6",
"wX c #93A2BB",
"eX c #95A1B8",
"rX c #91B8A6",
"tX c #DBB989",
"yX c #C5AC92",
"uX c #CAB599",
"iX c #E3B985",
"pX c #B8CBAE",
"aX c #D7C191",
"sX c #E1C487",
"dX c #D1CCAF",
"fX c #E5D1AF",
"gX c #EBE7BA",
"hX c #929FC0",
"jX c #95A2C2",
"kX c #ACD9D0",
"lX c #BEEBDD",
"zX c #9DD3C8",
"xX c #DEDCC5",
"cX c #ECECD4",
"vX c #C9EDDC",
/* pixels */
"%XoXoX%XoX%X$XoXoX%X%X%X%X%X%XoX%X%X%X%X%X%X%X%X%X%X%X%X%X%X%X%X%X%X%X%X%X%X%X%X%XoX%X%X%X%X%XoX%X%X%X%XoXoXoX~.~.%X%X%X",
"%X%X%X%X%X%X%X%X%X%X%X%X%X%X%X%X%X%X%X%X%X%X%XoX%X%X%X%X%XoX%X%X%XoX%X%XoX%X%X%X%X%X%X%X%X%X%X%X%X%X%X%X%XoX%X%X%XoX$X%X",
"%X%X%X%X%XoX+X$X%X%X%XoX%X%X%X%X%X%X%XoX%X%X%X%X%X%XoX%X%XoX%X%X%X%X%X%XoX%XoX$X$XoX%X%X+X%X%X%X%X%X%X%X%X%X%X%XoX%XoX%X",
"oX%X%X%X%X%X%X%X%X%X%X%XoX%X%X%X%X%X%X%X%X%XoX%X%X%X%X%X%X%X%X%X%X%X%X%X%XoX~.%XoX%X%X%X%X%X%X%X%X%X+X$X%X%X%X%X%XoX%X%X",
"%X%X%X%XoX%XoX%X%X%X%X%X%XoX%X%X%X%X%X%X%X%X%X%X%X%X%X%X$X%XoXoXoXoX%XoX%X+X%XoX%X%XoX%X%X%X$XoX%X%X%X%X$X%X%X%X%X%X%X%X",
"%XoX%X%X%XoX%XoX%XoX%X%X%X%X%X%X%X%XoX%X%X%X%X%X%X%X%X%X+XoXoX%XoX%XoX$X+X=X%X%X%X%X%X%X%X%X%X%X%X%X%X%XoX%X%X%X%XoX%X%X",
"%X%X%X%X%X%X%X%X%X%X%X%XoX$XoX%XoX%X%X%X%X%XoX%XoX%X%X%X%X%X%X%X%X%X%X%X%X%X%X%X%XoX$X%XoX%X%X%X%XoX%XoX%X%X%XoX%X%X%X%X",
"%X%X%X%X%X%X%X~.%XoX%X%XoXoX%XoX%X%X%X%X%X%X%X%X%X%XoX%X%X%X$X%X%XoX%X%X%X%X%X%X%XoX%X%X%X%X%X%X%X%X%X%X%X%X%X%X%X%X%X%X",
"%XoXoX$X%X%X%X%X%X$X%X%X%X%XoX+X%X$X%X%X%X%X%X%X$X%X%X%X+X%X+X%X%X%X%XoX%X%X%X%X%X%X%X%XoX%X%X%X%X%X%X%X$XoX$X$XoX%X%X%X",
"%X%XoXoXoX%X%X%X%X%X%X%X%X%X%X%X%X*X%X%X%X%X%X%X%X%X%X%X%X%X%X%X%X%X%X%X%X%X%X%X%X%X%XoX%X%X%X%X%X%X%X%XoX%XoX%X%X%X%XoX",
"%XoX$X$X%X%X%X%XoX%X%X%X%X=X%X%X%X%X%X$X%X%X+X+XoX%X%XoX%X%X%X%X%X%X%X%X%X%X%X%X%X%X%X%X%X%X%X%X%X%XoX%X%X%X%XoX%X%X%X%X",
"~.oX%XoX%X%X%X%X%X$X%X%X%X%X%X%X+X+X$X$X$X%X%X*XoX%X%X%X%X+X%X%X%XoX%X%X%X%XoX%X%XoX%X%X%X%X%X%X%X%X%X%XoX%X%XoXoX%X%X%X",
"%X%X%X%X%X%X%XoXoX%XOX%X%X%X=XoX%X%X%X$X$X$X$X%X%X%X%X%X%X%X%X%XoX%X%X%X%X%X%X%X%X%X%X%X%X%X%XoX%X%X%X%X%X%X%X%X%X%XoX%X",
"%X%X%X%X%X%X%X%XoXoX=XoX$X%X=X=X%X%X$X$X%X%X$X$X$X%X$X%X%X%X%X%X%X%X%X%X%X%X%X+X%X%X%X%X%X%X%X%X%XoX%XoX%X%X%X%XoX%X%X%X",
"%X%X%X%X%X%X%X%XOX=XoXoXoXoXOXoX+X+X%X+X+X+X%X&X$X$X$X$X$X%X%X%X%X%X%X%X%X%X+X%X%X%X%XoX%X%X%X%X%X%X%X%X%X%X%X%X%X%X%X%X",
"%X%X%X%XoX%X%X%X%XoXoXoXoXoXOXOX+X@XOX@XOX%X$X$X$X=X$X$X$X$X$X%X%X%X%X%X%XoX=X%X%X%X%X%XoX%X%X%X%X%X%X%X%XoX%X%X%X%X%X%X",
"%XoX%X%X%X%X%X%X=X-XoXoXoXoX-X/.$X=X$XoXoX%X%X$X-X=X+X%X%X*X%X%XOX%X%X=X%XoX%X%X%X%X%X=X%X+X%X%X%XoX%X%X%X%X%XoX%X%X%X%X",
"%X%X%X%X%X%X%X+XOXoX/./.$X;X`.`.`.`.'.`.`.(.&X$XoXoX+X+X+X+X+X+XoX=X%X%X@XOXoX=X%X+X%X%X%X+XoX%X%X%X%X%X%X%X%X%X%X%X%X%X",
"%X%X%X%X%X%X%X%XOXOX/.`.C y 5 3 5 4 y y y y U.&X%X%X%X%XoX%X+X+XoXOX=X-XOXOX%X%X$X*XoX%X%X%X+X+XoX%X%X%X%X%X%X%X%X%X%X%X",
"%X%X%X%XoX%X%X%XOX=X_.3.a U Q Q W Q Q R Q g 4 Y.).=X%X=X$X$X/.%X-X=XoX=XoX@XoX%X$X$X$X$X%X%X+X%X@X%X%X%XoX%X%X%X%X%X%X%X",
"%XoX%X%X%X%X%X%XoX&X2.3 R l.j.j.g.g.k.l.l.h.c i 3.W.W.W.W.W.W.2.W.3.W.).&X=X=XoX$X$XoXOXOX=X$X*X%X$XoX%X%X%X+X%X%X%X%X%X",
"%X%X%X%X%X%X%X%X$X).C s j.l.l.l.k.k.k.l.a.Y H $ $ $ $ $ .   $     . # h 3.2.2.=X$X%XoX-X@X%X$X$X*X%X%X$X+X%X%X%X%X%X%X%X",
"oX%X%X%X%X%X$X=X/.Y.% R l.k.k.k.k.l.f.H G ; - > &.%.5.$.o.[ q { ....| 0 . . # ~ 3.=X=X=XoX$X$X%XoXoXoX$X%X%X%X%XoX%X%X%X",
"%X%X%X%X$X%X%X$X).C K h.k.k.k.k.z.^ t , o.7.7.7.u.u.i.8.7.O.)  .$.#.$.+.X. .| > $ ~ '.=X$X$X$X%X-X=XoX$XoX%X%X%X%X%X%X%X",
"+XoX%X%XoXoX&X`.v e k.l.k.k.k.k.f.H | w.0.r.r.e.r.r.e.r.r.9.O.{ } #.=.=.#.#.%.X.q 8 ~ `.&X&X&X=X=XoX@X@X=X%X%X%X%X%X%X%X",
"OXoX%XOXoX=X`.l s T k.k.k.k.k.j.^ > 5.t.r.r.t.r.r.t.t.t.r.q.0.O.) } #.#.@.#.#. .q @ * u a a f W.&XOXOXOX*X=X*X%X%X%X%X%X",
"$X$X$X%X+X&X'.+ d z a.k.k.k.s.j.H - %.t.t.r.r.r.e.t.r.e.e.e.t.9.O.) X.@.=.$.| - @ Y Q E.E.Q U a !.&XoX@XOX%X$X$X%X=X%X%X",
"$X%X$XOX+X&Xy + z P a.s.s.s.s.a.@ , %.y.y.t.r.r.r.r.r.e.e.e.e.e.8.O.) X.#.{ ; E z.5X6XqX8X6X5X! a !.&XOXOX*X&X$X%X%X%X=X",
"&X%X+X@X*X`.4 O P L L I I R I P o > q @.7.q.q.t.r.t.t.t.e.e.e.t.u.0.@.' q ; h.7X9X9X9XjXwX8XeX6X! 6 ).&X+XoX%X%X$X%X%XOX",
"%X*X%XoX%X`.3 O P L L I P P P x X @ - 2 ' +.@.-.9.0.0.y.q.y.0.y.q.q.-. .8 H 5X0X9X9X9XwXwX9XeXeX5X^ a W.$X%X%X%X$X%X@XOX",
"&XoX=XoXoX;X+ % P L P P P P r % e t & ; @ , ' < X.+.X.O.O.O.O.O.O.+.{ ; ~ !.|.[.qX0XeXwXwXeXwXqXeX5XK f ;X@XoX$X$X$X@XOX",
"_.$X$XOX^.!.B O e d P a.^ e e K z.8X6Xf.G - , ] ] ' [ _ ) [ _ _ _ q   a !./.{.Q.|.|. XqX0XwXwXwXeXE.d a U.Q.I.&X$XoXOXOX",
"$X=X=X=X{.G.].6.1XE.p a.Y & z.eX0XwXjX9X6XY @ : ' ..' ] _ ] ' _ ] : # C $X$X%X,X}.Q.!.|.]. X0X0X7Xa.z e N A.L.oX*XoXoX-X",
"=XOXoX>X{.<XpXuXsXtX4X! p ! 6XjX0XwX9XjX0X5XY @ : 1 ] ' _ ] ' _ ] - p ).=X$X$X$X,X&X(./.Q.}.|.[.z.z z r e S L.~.:X#XoX-X",
">X@X%X^.C.zXcXtXi.tXcX Xg h.7X9X9XqX0XhXjXwX5XY # . = , < ] ..1 , 9 E.U.$X$X=X=X@X%X=X=X#X,X!.|.W c x P w F m.P.{.+X%X=X",
">XoX_.V.<XrX].xXgXfX1X! W d.Q 7X8XeXwX9X9X9XqX|.W & = , ] ..| uXyX8 h 1./.$X-X-XOX$X$X-XOX>X).S c z L z w Z C.b.P.~.&X=X",
"_.^.B.x.m.G.R.kXvXkXR.Z d.s.s.[.hXhX9X9XqXqXqX.X].dXtX....uXfXiXtXxXrXn 1.+X%XoX+X%X=X%XOX^.,.v.N z z z w B S.C.S.K.,X%X",
"^.^.A.A.F.S.A.T.T.D.|.[.d a.s.a.[.[.7XqX.XXX;XlXgXi.p.cX2X4XfXiXtXdX3Xl n V._.Q.oX*XoX_.^.1.n.M.R.T c x w F D.C.N.H.:X&X",
"~.^.F.F.F.C.C.A.S.S.S v c c W d.d.a.[. XXX`.'.zXpXp.sXaX*...J 4X2X$ i l M V A n J.J.P.,.x.N.M.v.v.D v v F v.C.C.N.H.>X%X",
"OX~.K.A.S.S.S.S.A.b.S M N F D F N d.T.!._.^.^.M.C 6.6.H *.&.J 0 7 a C <.m ,.U.>.m n ,.N.A.S.,.n S >.V N D F.C.N.N.^.%X%X",
"oX,X~.K.N.S.C.A.A.B.G.m.>.m.M.G.S b v.M.v.,.;.;.j 5 g p *.( 0 9 i W U.S.c.>.b.S.N.x.A.A.G.G.m >.m.S.m.A >.D.N.N.Q.{.%XoX",
"%X%X/.{.P.N.S.S.A.A.S.S.A.F.G.A.B.>.b v.,.b >.c.V j D i 6 #   o a M.A.A.F.c.c.A.S.C.G.A.F.M.m v.A.G.m.x.n.N.N.I.,X%X*X%X",
"$X%X+X{.~.~.P.S.N.N.b.C.A.A.F.F.A.c.A v.S S m.A.m.,.<.j f u a u V V.N.C.F.A.m x.N.S.m.G.A.c.b m.A.G.A.B.V.L.~.OX>X*X%X*X",
"oX%X*X*X+X,X{.^.H.N.N.n.C.F.A.F.C.b.N.A.b.C.S.C.F.F.b.n k k j k V m.m.A.A.G.>.m n.v.D.A.b.b.m b.N.D.N.L././.*XoXoXoX%XoX",
"oX+XoX+XoX%X*X%XoX~.Q.N.S.S.N.S.C.Z.A.N.S.S.S.F.F.F.S.S.S b n m v.m.N.A.S.A.m.m.m.>.S.c.,.H.V.H.K.{.{.{.,X%X$X%XoX$XoX%X",
"oXoXoXoX%XoX+X%X+X*X+X+X,X:XL.H.P.P.P.D.S.S.S.C.S.S.N.N.M.A.C.m.B.m.M.D.m.N.N.B.N.B.K.K.H.^.+X@XoX@X+X%X$X/.$X%X%X%X%X%X",
"*XoX%X+X%X$X%X%X%XoX%X%X%X%X*X%X+X:X:X{.^.L.L.P.K.K.L.K.Q.Q.K.K.K.Q.K.Q.K.K.L./.,X,X{.,X%XoX+X+XoXoX+XoX%X%X%X%X%X%X%X%X",
"%X%X%X%X%X%X%X%X%X%X$X%X*X+X+X%X%X%X*X*X>X>X,X,X,X,X*X,X:X}.,X$X%X,X,X%X,X%X%X=X%X@X%X+X+XoX+X+XoX%X+X%X+X*X+X+XoX%X%X%X",
"%X%X%X%X%X%X%X%X%X%X%X$XoX%XoX%X$X-X%X%X$X%X=X$X*X%X%X+X@X,X*X%X%X%X$X$X$X$X$X$X%X%XoX%XoXoXoXoX%X%X%X=XoX+XOXoXoX%X%X%X",
"%X%X%X%XoX%X%X%XoX%X%X%X%X%X%X%X$X%X%X%X%X%X$X$X+XoXoXoXoXoX@X+XoX$X%X$X$X$X-X$X%XoX%X%X%X%X%X%X%X%X%X%XoX%X%X%X%X%X%X%X",
"%X%X%X%X%X%X%X%X%X%X%X%X%X%X%X%X%X%X%X*X%X%X$X%X+X+X+X+X@XoX+XoX$X$X$X%X$X$X=X$X%X%X%X%X%X%X%X%X%X%X%X%X%X%X%X%X%X%XoX%X",
"%XoX%X%X%X%XoX%X%X%X%X%X%X%X%XoX%X%X%X%X*X,X%X%X%XoX+X%X+X+X+X+X%X%X%X%X$X%X%X$X%X%X%X%X%X%X%X%X%X%X%X%X%X%X%X%X%X%X%X%X",
"oX%X%X%X%X%X%XoX%X%X%X%XoX%X%X%XoX+X=XoX*X%X%X%X%X%X%X%XoX%X%X%X%X%X%X%X*X%X%X%X%X%X%X%XoX%X%X%X%X%XoX%X%X%X%X%X%X%X%X%X",
"%X%X%X%X%X%X%X%X%X%X%XoX%X%X%X%X%XoX+X$X%X%X%X%X%X%X%X%X%X%X%X%X%X%X%X%X%X%X%X%X%X%X%XoX%X%X%X%X%X%X%X%X%XoX%X%X%XoX%X%X",
"%X%X%X%X%X%X%X%X%X%X%X%X%X%X%X%X=X%X$X$XoX%X%X%X%X%XoX%X%X%X%X%X+X$X%X%X%X%X%X%X%X%X%X%X%X%X%X%X%X%X%X%X%X%X%X%X%X%X%X%X",
"%X%X%X%XoX%X%X%X%XoX%X%X%X%X%X%X%XoX%X%X%X%X%X%X%X%X%X$X$X%XoX$X%X%X%X%X%X%X%X%X%XoX%X%X%X%X%X%X%X%X%X%X%XoX%X%X%X%X%X%X",
"%X%XoX%X%X%X%X%X%XoX%X%X%XoX%XoX%X%X%XoX%X%XoX%X%X%X%X%X$XoX%X$X%X%X%X%X%X%X$X%X%X%X%X%X%X%X%XoX%X%X%X%X%X%X%X%X%XoX%X%X",
"%X%X%X%XoX%X%X%X%X%X%X%X%X%X%X%X%X%X%X%X%XoX%XoX%X%X%X%X$XoX$XoXoX%X%X%X%X%X%XoX%X%X%X%X%X+X%X$XoX%X%X%X%X%XoX*X%X%X%X%X",
"oX%X%X%X%X%X%X%X%XoX%X%X%X%X%X%X%X%X%X%X%X%X%X%X%X%X%X%XoX%X%XoX%X%X%X%X%X+X%X+X%X%X+X%X%X%X%X%X%X%X%XoX%X%X%X%XoX%X%X%X",
"%X%X%X%X%X%X%X%X%X%X%X%X%XOX%X%X%X%X%X%X%XoX%XoX%X%XoX%X%X%X%X%X%X$X+X%X%X%X$X%X$X%X%X%XoX%X%X+X%X%X%X%X%X%XoX%X%X%X%X%X"
};
