/* XPM */
static char *item[] = {
/* columns rows colors chars-per-pixel */
"60 60 229 2 ",
"   c #0F2E1A",
".  c #052D31",
"X  c #102F39",
"o  c #0A333E",
"O  c #183A39",
"+  c #12362C",
"@  c #2C3231",
"#  c #4D3D2B",
"$  c #1B4237",
"%  c #3C4728",
"&  c #3A443A",
"*  c #385436",
"=  c #2A482A",
"-  c #3C643D",
";  c #47522E",
":  c #574E3A",
">  c #485A35",
",  c #524B3F",
"<  c #605F38",
"1  c #50643A",
"2  c #63693F",
"3  c #193C46",
"4  c #2D3C43",
"5  c #1B4349",
"6  c #1B574C",
"7  c #1D5259",
"8  c #1E4C54",
"9  c #26474A",
"0  c #25564B",
"q  c #244A5A",
"w  c #2B4958",
"e  c #37495A",
"r  c #275854",
"t  c #36595D",
"y  c #3A674B",
"u  c #35665C",
"i  c #256153",
"p  c #1F5560",
"a  c #244B62",
"s  c #295865",
"d  c #385667",
"f  c #3B5B75",
"g  c #374D65",
"h  c #1B7964",
"j  c #286469",
"k  c #3A6466",
"l  c #357568",
"z  c #2E6873",
"x  c #3B6173",
"c  c #386976",
"v  c #2B7674",
"b  c #38777A",
"n  c #2E7663",
"m  c #4E4E4D",
"M  c #477159",
"N  c #7B724F",
"B  c #7B704C",
"V  c #414D68",
"C  c #46576A",
"Z  c #4B5B74",
"A  c #485D76",
"S  c #535D78",
"D  c #50586D",
"F  c #4D637C",
"G  c #476576",
"H  c #58647A",
"J  c #497379",
"K  c #557377",
"L  c #4C6165",
"P  c #72797B",
"I  c #837C51",
"U  c #3D8069",
"Y  c #2D8476",
"T  c #31857A",
"R  c #2E967C",
"E  c #468979",
"W  c #479C77",
"Q  c #468164",
"!  c #49A27C",
"~  c #96895B",
"^  c #A28D5E",
"/  c #858563",
"(  c #9A8B62",
")  c #B59867",
"_  c #A49565",
"`  c #B9A672",
"'  c #B3A26F",
"]  c #C7AC74",
"[  c #D3AF72",
"{  c #CFB47B",
"}  c #DBBA7A",
"|  c #C5A96C",
" . c #ECC374",
".. c #E5C57B",
"X. c #ECC37B",
"o. c #E7C571",
"O. c #F1C374",
"+. c #EEC26F",
"@. c #397A83",
"#. c #3E6C82",
"$. c #4C6B81",
"%. c #556381",
"&. c #5C6A83",
"*. c #596B86",
"=. c #477983",
"-. c #567886",
";. c #5B7B92",
":. c #626C84",
">. c #666E8C",
",. c #63728D",
"<. c #6A748C",
"1. c #667989",
"2. c #787F85",
"3. c #667391",
"4. c #6B7392",
"5. c #657C94",
"6. c #6B7B93",
"7. c #6D7B98",
"8. c #747B9A",
"9. c #757B98",
"0. c #3B8383",
"q. c #3A8A84",
"w. c #398A85",
"e. c #2F9480",
"r. c #3B9385",
"t. c #359C84",
"y. c #3C958B",
"u. c #369C8A",
"i. c #3B9B8B",
"p. c #359485",
"a. c #3D9C91",
"s. c #3F9690",
"d. c #3BA38D",
"f. c #3CAA8D",
"g. c #3BA986",
"h. c #3EA993",
"j. c #3EB38E",
"k. c #49848C",
"l. c #438A8B",
"z. c #478888",
"x. c #43948D",
"c. c #429C8B",
"v. c #499684",
"b. c #559B87",
"n. c #5C8495",
"m. c #449590",
"M. c #459C91",
"N. c #4D9793",
"B. c #559798",
"V. c #508590",
"C. c #688498",
"Z. c #73839C",
"A. c #79839C",
"S. c #748B9B",
"D. c #41A48D",
"F. c #49A889",
"G. c #54A888",
"H. c #46B48D",
"J. c #56B28A",
"K. c #43A693",
"L. c #43AC94",
"P. c #44AD99",
"I. c #49A896",
"U. c #56AC98",
"Y. c #44B295",
"T. c #4DBC93",
"R. c #4BB499",
"E. c #4DBC9B",
"W. c #46B898",
"Q. c #53B393",
"!. c #52BE9B",
"~. c #5CBC9D",
"^. c #58B698",
"/. c #68A794",
"(. c #64BC9D",
"). c #63B49A",
"_. c #7B83A3",
"`. c #7889A3",
"'. c #7795A9",
"]. c #6792A3",
"[. c #4DBDA2",
"{. c #52BEA2",
"}. c #5ABCA3",
"|. c #65B8A2",
" X c #7CA4B4",
".X c #6EA9A8",
"XX c #4EC596",
"oX c #4DC895",
"OX c #4FC599",
"+X c #4DC89A",
"@X c #45C694",
"#X c #51C597",
"$X c #59C196",
"%X c #51C895",
"&X c #50C598",
"*X c #59C29C",
"=X c #51C99B",
"-X c #63C09F",
";X c #4DC3A2",
":X c #53C3A2",
">X c #5CC2A3",
",X c #58C8A2",
"<X c #64C1A4",
"1X c #858E98",
"2X c #838DAB",
"3X c #868EA7",
"4X c #8394AE",
"5X c #8992AF",
"6X c #8494A8",
"7X c #8595B1",
"8X c #8C95B3",
"9X c #8C9BB5",
"0X c #8E9EBA",
"qX c #869DB5",
"wX c #929AB7",
"eX c #949DBA",
"rX c #969BBA",
"tX c #8BA3BB",
"yX c #85A8BC",
"uX c #85A6B9",
"iX c #93A2BD",
"pX c #99A1BD",
"aX c #97A5B5",
"sX c #DCC188",
"dX c #E8C484",
"fX c #939EC0",
"gX c #93A5C1",
"hX c #98A2C0",
"jX c #8FA4C0",
/* pixels */
"&X#X&X&XXX#X&XXXXX&X&X#XOX&X&X&X#XXX&X&XOXOXOXOXOXOXOXOXOXOXOXOX&XXX&XOX&X&XOX#XOXXX&XOXOX#XXXOX#X&X#X&XOXXX#X&X#XOX&X#X",
"OXOX&XXX&XOX&X&X#XOX&XOXOX#XOXXXOX&X&X#X#XOXOXOXOXOX&XOXOX#XOX&X&XOX&X#X#XOXOX&X&X#X#X&X#X&X&X&XXX#XOX#XOX#XOX&XOX&X&XXX",
"#X#XOXOX&X&X&X&XOX&X#XXX#XXX#X&X#X&XOXOX&X#X#X#X&X#X&X#XOX&X#XOXOX&X&XXX&XOX#XOXOX&XOX&XOX#XOX&X&X&XOX#X&X&X&X&X#X&XOX&X",
"&X&X#X&X#X&XOXXX#X&X&X&X#XOX&X#XOX#XOX#X&X#X#X#X#X&X#XOX#X#X#X#X#X#X#X#XOX#X#X&X#X#XOX&X#XOX&X&XXX&X&XOX#XOX&XXX&XXX#X&X",
"&X#XOX&XOX&X&X#XOXXX&X&X&X&XXXOX#XOXXX&X#X#X#X#X#X#X#X#X#X#X#X#X#XoX%X%X%X#X%X#X#XOXXX&X&X&XXX&X#X&X&XOX#XOX#XE.OX#XOX&X",
"XX&XXX#X&XXXOX#X&X&XOX#XOX#X&X&X#X&X&X&X#X#X#X#X%X#X#X#X#X#X#X#X#X#X#X%X#X#X=X#XXXOX#X#XOXXX#XOX&X&XXX#XOX#X#X#X#X&X#XXX",
"&X&XOX&X&XOX&XOX&X&X#X#X#X#X#XOXOX#XOX#X#X#X#X&X#X#X&X&XOX#X#X%X&X=X%X#X#XXX&X&X#X&XOX&XXX&X#X&XOXXX&XOXXX&X#X&XOX&XOX&X",
"OX#X#X&XXX&XXX#XXXXX&XOX&XOXOX&XOX#X#XOX#X#X&X&X#X#X&XXX#X&X#X#XOX&X&XOX#X#X&X&X#X#XXX&X&X&XOX#XXX&X&X&X&X#XXXOXXX&X#X&X",
"#X&XOX&X&XOX#X&XXX&XOX#XOXOX#X#X#X&X#X#X&X&X&XXX&X&XOXXXOXOXOX&X&XOX&XOX&X&X&X&X&X&X&X&XOX&XXX#X&X&XOX#X&X&XOX&X#X&X#XOX",
"OX&XXX#X&X&XOX#X&X&XOX#XXXOXOXOXXXOX#X#X&XOXOX&X&X&XOX=X&XOX&X&X&X&X&X&X&X&XOX&X&X&X&X&XOX&X#X#X&X&X&XOX&XXX#XOXOX#X&XXX",
"#X#X#X#XXX&XOX&X&X&X&XOXOXOXOXXXOXOXXX#X#X%XoX#X*X*XE.:X:X$X$X*X&X*X&X&X&X+XOX&X&X&X&X&X&X&X#XXXOXOXOXOXXX&X#X&X&XXXOX=X",
"#X#X#XXX#XOX#X#X&X&X&X&XOXXXOXXXXXOXXXXX*X#X@XXX&X#X*XE.*X$X$X&X&X!.*X&X&XOX=XOX&X&X&X&X&X$XXX#X&X&X$X#XOXOXOX&X&X#X#XOX",
"XXXX#X#X&XOXOXOX#XOX&X:X&X&X#X$X#X=X#X+XOX*X+X&X%X).G.J.Q.v.J.Q.^.^.U.^.&XXXXXOX&XOXOXOXoX#XoX#X&XOX=X#XOX#XOXXXOXOX#X#X",
"%X#X#XOX#X&X#X&X&XOX&X&X&X*X$X%X#X#XOX+X&X$X*X~.).0 + + +   $ O O $ $ b.|.!.OXOX*XOX&XOXoXXXoXoXoXXXoXXX&X#XOXOX+XXXOX#X",
"&X#XOXOXOX#X&XOX&X#XOX&X&XoXXXXX#X&X&X&X=X~.|.G.y :.2.P m / & 2.Z.1.S.r E }.*X*X$X!.&X$X#XXX%XoXXX@X+X&X&X&XOXoXoX+X&X#X",
"OX#X&X#X#XOX&X#XXX&X&XXX&XoXoX@X=X$X|.<Xv.r 0 r 9 4XwXP B sX: 1XaXiXaXd 0 r i n (.&X!.OX=X+XXX&XXXXXoXOX&X#XOXOXOXOXOX#X",
"#X&XOX#XXX&X#XOX&X&XXX=X@X@X@XXX#X(.U n u G G r f C.3X, {  .~ D pXwX1XG L C C C u n ~.#X&X+X&X&X#X*X#X#X&X&X&X&XOXOX#X#X",
"OX&XXXOX&X&XXX#X#XXXXXoXOXXXOX>X(.b.r 9 K 7X'.-.#.=.L B ..+.} : 2._.5.C <.8XfX1Xe 9 E ).^.&X&XOX$X&X&XOX&X&X#X#X#X&XOX&X",
"&XOX&X&X&X&X#X#X#X%X#X#X>X!.^.v.b.0 d S._.:.L t 9 * ; | X.X.dX) # & 4 & m >.2X5X1XP 4 -.v.U.}.*X&X=X@X+X+XXX#X&X&X&X&XOX",
"&X#X&XOX&XOX#XoX#X#X!.*XJ.F.v.5 G G :.H @ ; B _ ] ] } X.O.X.O.O.[ [ ) ~ N @ 4 8.>.C.C C 9 J G.J.!.OX@X+XOXXX&X#X#X#X&X+X",
"OX&X&X&X#X#X+X@X+XXX~.).E + 5 `.8X5XtX5.d % ' dXdXX.+.O.O.O.X.X.dXX.X.dX( @ %.;.6.8XqX X'.d . u (.&X=X+XOX&X&X$X&X#X&X&X",
"OX&X&X*X&X=X+X+XXX~.).l 5 K <.0X8X0XC.#.l l = ' sX .O.O.+.O.X.X.X.o...I @ d V A 3.eXuXyXuXA.H d 0 I.&XOX&X&X&X&X&X&X&X+X",
"OX&X*XOX&X#X+X@X,X|.T r J P 4.6.C.$.=.l.Y T ! ; ) X.X.X.X.X.O.O.X.dX~ = b b s d $.0XjXgX`.4.<.H L r U.:X+X&X$X#XOX&X&X+X",
"OXXX&X&X=X&XoX+XOX|.M O C D S *.G b I.U.K.t.<X! % [ X.X.dXX. . ..._ = U.K.p.q.@.s *.6.8.4.*.C D 9 O /.~.&X&X#XXXOXOXOX+X",
"XX#XXXXX#XT.XX=X*XU k n.A.2.8.G b N.}.{.!.g.H.).; ` O.dXO.X.O. ...~ M *XT.L.K.w.@.s g Z &.7.Z.7.6.K L U.&XXXOXXXOXOX&XOX",
"oXXX=X&X%X$X#X$X(.r d qXpXrX8XK k.{.{.;X=XT.H.!.% sXdXO.O.O.o. ...` y $X:X:X[.M.x.b g *.8.9XtX0XuX1.. ).*XXXOXXX+X&XOXoX",
"XX%X#XXXXX!.$X$XW r t C.8XrXrX;.B.K.{.:X!.*X:XJ.> dX..O.[ ` ..X.X.] - $X&XXX:XR.i.z.f '.fXgXjXjXZ.H e E R.+X=XOXXXXX#XOX",
"oX%XXXXX=X$XT.}.6 t 6.,.9.5X3X*.=.p.L.W.!.&X+XW 2 dX} Q > * < _ dX{ 1 H.+XoX=XE.i.x.s C.7X7X'.`.1.<.K O D.XX=XXXXXOXOX&X",
"#X#XOXOXXX&X*X~.6 d :.,.*.*.*.d s b e.e.j.+XOXQ N ~ > M J.$XG.y 1 _ 1 J.@X@X@X;X:Xp.v z F *.*.>.:.:.:.. c.OXOX&XXX#X&X&X",
"#X#XOXOXXX$X~.^.r d H V V V A g x h h e.{.&X*Xy = M ! ^.oXoX$X^.W -   G.&XXX@X@X[.u.y.k.x f $.g V D S X c.=XOX&X#XXX#X&X",
"XXXXOXOX&X&X~.}.v.4 g >._.wX7XA f z Y P.{.{.#X! J.%X%XoXoX%X%X%X^.(.G.G.>X*X;X;XW.u.u.k.#.7.hX2X4.H 3 =.}.OX&X&XOXXXOX#X",
"OXoXOXXX#X&X&X}.B.9 e 8.rXfXrX'.x z @.u.R.:XE.&X=X%XoX%XoX%X%X%X#X%X$X#X#X;X;X[.u.s.w.#.C.qXpXeX_.*.X q.U.>X$X&X&X&X&X&X",
"#XOXOX#X#X#XXX}.N.5 e `.iXeX0XtX'.c @.y.u.h.:X:XOXOXOXOXOX;X+X+XOXXX+X;X:X:XW.d.a.y.#.n. XfXwXeX6XF o v.R.~.#X#X#X&X&X#X",
"&X#XXX&X#XOX&X}.G.5 e `.tXrXrX0XtX=.z w.y.i.f.D.:XOXOX;X;X[.;X;X;X;X;X;XP.h.d.s.s.=.#.'.fXrXfXrX4X$.o r.R.&X#X&XOXOX&X&X",
"&X#XOX&X&X&X&X}.U.l q F 3XaXpXiX2X5.n.=.z 0.y.i.K.P.h.h.P.h.P.P.P.P.P.P.a.M.w.#.#.].;._.wXrXhX7X1.w s L.E.&X+X#XOXOX&XOX",
"&X&X&X&X&X&X&XOX>XN.j 9 C.`.`.3X_.4X0X`.-.J b @.y.s.a.u.m.w.s.s.y.p.y.y.w.#.=.=.;.jXfX8.2X5X5X_.A O x.:X:X&XOXXXOXOX&X&X",
"#X+X+XOXXX=XoXXX:XF.j r =.V.K S.6XaXrXiXtX'.$.$.=.k.N.B.B.].B.B.B.B.N.=.=.$.5.jXgX0XeXeX8.>.:.F t 6 w.[.OXXXXXoXOXXX#X&X",
"#X%XXXXXXX#X+XXX;XD.i.x.c.M.G.].uXtXiXeXeXfX0X'.].n.'.yXyXjXyXuXjX X].;.Z.fXfXeXtXiXtX0X8X*.g 5 r l.i.OXOXXX%XoXOX&XOX&X",
"#X#XoXOXXX@X#X=X=Xf.t.L.{.:XU.N..XuXuXiXeXeX5XA ,.'.gXjXjXyXfX0XyXtXtX7.%.4.hX0XtXtX XuXn.G 3 8 r.i.R.&XXXXX%X%XXX&XOXOX",
"#X#X+X&X&X$X&X+XOXg.f.{.:X:X}.}.N.v.`.0XrXrXwX4.8X8XfX0XjXfX0XeXgX0X0XrX8._.0XuX'.c v v @.8 r l.K.:X;X&XXXXX%X%X#XOX&X#X",
"#X#X+X#X#X#X#XOX&Xf.L.*X&X[.{.>Xy.z.n.C.6.<.4.D 4.rXfXrXeXrX0X0XgXeXeX_.*.%.C.=.z.0.r.w.v b T I.!.;X+XXXOX#X%X#X#X#X&XOX",
"#X&X#XOX#X+XOXOX&XT.T.&XOXOXOX:Xc.v x J 5.:.Z V 4.8.8.8XgXfXiXfXwX_.8.4.S d x T T t.p.y.R v R ^.OX;X+XOX&X&X$X#X&XOX&X#X",
"&X#X#XOXoX&XoXXX&X&X$X#XOXXX&X:Xi.T b @.s q t w S >.3.8._.8._._.8.4.4.%.g q j v p.R.P.R.i.h r.*X=XXXXX#X$X&X#X#X#XOX#XOX",
"#X#X#X+XOX+X=XOX&X&X&X&X&XXXXXL.L.i.x.p.v s c q s A $.*.4.4.3.3.>.%.%.d w j b w.P.[.:X:XR.R g.*X+XoXXX&X&X&X&X&X&XOX#X&X",
"&X#X&X&XoXOX+XOX&X&X&X&XOX#XXXf.[.P.h.K.K.y.m.b j z a g F A G G f a g s z T r.L.:X;X&XOX&XW.j.+XXXXXoX&X!.&X&X#X#X#X&X&X",
"&X#X&X&XOXOXOX#X#X&X&X&X&XXXXXOX:X:X:X:X[.d.a.p.v #.s 7 a a q a p 7 z v q.M.D.d.W.OX&X&X&XOXXX=XXX&XOXOX#X&XXX&XOX#X&XXX",
"#X&X&X&XOXOX#X#X&X#XOXoXOXOXOXOXOX[.OX[.[.{.{.d.a.y.a.s.x.x.m.x.m.y.a.i.a.I.:XW.g.@XOX#XOXOXOXXXOX#X#X#X#X#X#XOX&X#X&XOX",
"#X&XOXXXOXOXOX#XOXOXOXOX+XOXOXOXOX*X;X*XOX:X:X[.{.d.u.u.i.i.i.y.i.u.u.R.{.&X,XW.XXXXXX$XXXOXOXXXOX&X#X#X&X&X#X#XOX#XOX&X",
"OX&X#XXX&X#X#XOX&XOXOXOXXXXXOXOX&X:X&X&X&X&X&X!.:XOX[.E.{.[.{.{.{.OXE.:X:X&X&XOXXXXXXX#X&X!.XXOXOXOX#X&X&X#X&XOXOX#XOXOX",
"#X&X&X&X&XOX&X#X#X&X#XOXOXXXOXOXOXOXOX&X&XoX#X#XXX&XOX&X:X&X&X=XOXOXOX&XOX&XOX&XXXOXOXOX$X#X#X&XXXOXOXOX#X&X#X#X&XOX&X#X",
"OX#XOX#XOX#XOX&X#XOX&X&XOXOXXXOX;XOXXX+XoX%XXXoXXX&X#X#X$X#X&X&XOXOXOX&X#X#X&XXXOXOX#X&X$X&X#X#XOX&XOXOXOXOXOXOX#X#X&XXX",
"&X#XOXOX#X&XOX#X&XXX#XOX&X&XOXOX+X=XOXOXXXoXXX#X%XXX#XXXXXXX#X#X&XOX&XOX&X&X&XXXOXOXOX&XXX&X&X&XOXOX&X#XOXOX#X&X&XOX&X&X",
"OX#X&X#XOXOXXX#XXX&X&X#X&XOXOX&X#X#X#X#XXX#XXX#XXXXX%X#X#X#XXXOXXX#X#XOX&X&X#X#X#X#XOX#X&X&XXX&XOX#XXXOX#X#XOX#X#XOX#XXX",
"#X&XXXOX&X#X&X&X&X&XOX&XOX&X#X&XOX&XOXOX#X%X%X#X%X#X#X#XoX#X#XOXOX&X&X#X#X&XOXOXOX#X#XOXOX&X#X#X#X&X&X#X#XOX#X&XOX#X&XOX",
"OX&X&X#XXX&XOX#X&XOXOX&X#X#X#XXX#X&X&X&X#X%X#X#X#XXX#X%X#X#X#X#X&X#XXX&X&X&X&X#X#XOX&X&X&X#XOX&X&XOX&XOX#X&XOX#X&XOX#XOX",
"OX#XXX&X&X&X#XOX&XXX#X&X&XOX&X&X#XOXXXOX#X#X#X#X&X#X#X&X#X#X&X#XXX&X&XOX#XOX&XXX&X#XOXXX#XOXOX#XOX#X#XOX&XOX#XOX#XOX&X#X",
"OX&X&XXX#X&X&XOX&X&X&XOX#XOXXXXX&X&X#X&X&XOX#X#XOX#X&XOX#X&X#X&XOX&XXX&X#XOX&XOXXX#XOX#XXX#X&XOX#X&X&X&X&XOX#XXX#XOX&XOX",
"#X#XOX&XOX#X#XXXOX#X#X#X&XOX&X&XOXXX&XXX#XOX#X&X#X&X#X#X&XOXOXXX&X#X&X#X&X&X#XOX&X&X&XOX&X#XOX#X#XOX&XXXOX#X&X&X&X#XOX#X",
"OX#XOX#X#XOX&XXX&XXXXX&XOX#XXX&X&XXX&XXX#X&X&X#XOX&XOX&XOX&X&XXX&X#XXX&XXX&X&X&X&XXXOX#X&XOX&X&X&XXXXX&XXX&X&X#XOXOXXX&X",
"#XOX&X#XOX&X&X&XOX&X#XOX&X&X&X&X&X&X&X&X&X#XOXOXOX#X#X&X#X#X&X#X&XOX&XOX#XOX&XXX&X#X#XOX#XOXOXOXOX&X&X#XOX#XOX&X#X#X&X#X"
};
