/* XPM */
static char *player[] = {
/* columns rows colors chars-per-pixel */
"60 60 233 2 ",
"   c #16180E",
".  c #190F1A",
"X  c #181718",
"o  c #0C0E1D",
"O  c #2B190E",
"+  c #260F1F",
"@  c #241414",
"#  c #2C1713",
"$  c #3A1A1C",
"%  c #2C0C0A",
"&  c #182A18",
"*  c #18331B",
"=  c #122B15",
"-  c #27261A",
";  c #3B2817",
":  c #27301C",
">  c #352916",
",  c #1A0E27",
"<  c #0F1624",
"1  c #141424",
"2  c #1B1223",
"3  c #121C24",
"4  c #1C132A",
"5  c #17192A",
"6  c #1E1930",
"7  c #270D28",
"8  c #23132B",
"9  c #2A142B",
"0  c #251626",
"q  c #351729",
"w  c #340D39",
"e  c #251332",
"r  c #2B1B33",
"t  c #2B1637",
"y  c #321235",
"u  c #341A35",
"i  c #34153B",
"p  c #3B153D",
"a  c #391B3B",
"s  c #2B0A32",
"d  c #192727",
"f  c #1E3A3A",
"g  c #143425",
"h  c #25292A",
"j  c #382823",
"k  c #263A29",
"l  c #373626",
"z  c #272837",
"x  c #36233A",
"c  c #233B3F",
"v  c #462C1B",
"b  c #582A1C",
"n  c #54311C",
"m  c #753A1F",
"M  c #481939",
"N  c #471D2D",
"B  c #4A2E28",
"V  c #532D2C",
"C  c #56272A",
"Z  c #48372C",
"A  c #5B3328",
"S  c #5A3632",
"D  c #4A3230",
"F  c #633728",
"G  c #1A4930",
"H  c #26472D",
"J  c #37412C",
"K  c #294835",
"L  c #354A34",
"P  c #2B5638",
"I  c #3C5F3E",
"U  c #30603E",
"Y  c #53442E",
"T  c #4A4935",
"R  c #584833",
"E  c #514F36",
"W  c #7A462A",
"Q  c #674A3A",
"!  c #7C4E3D",
"~  c #784737",
"^  c #6F553D",
"/  c #76523E",
"(  c #3C1443",
")  c #381C42",
"_  c #3C2B46",
"`  c #2C3D44",
"'  c #333245",
"]  c #431444",
"[  c #441C44",
"{  c #441B4A",
"}  c #4B1C46",
"|  c #461C51",
" . c #521B45",
".. c #4C254E",
"X. c #46274A",
"o. c #562B49",
"O. c #4D2354",
"+. c #4C2955",
"@. c #522554",
"#. c #592554",
"$. c #522954",
"%. c #5B245B",
"&. c #5B2B5B",
"*. c #562758",
"=. c #59315D",
"-. c #40304D",
";. c #61275B",
":. c #641E60",
">. c #592B61",
",. c #632462",
"<. c #692A67",
"1. c #722B6E",
"2. c #693468",
"3. c #7D2D77",
"4. c #753373",
"5. c #7E397C",
"6. c #693B71",
"7. c #285744",
"8. c #375A4A",
"9. c #375A55",
"0. c #304847",
"q. c #3B664B",
"w. c #346B52",
"e. c #3B6D61",
"r. c #397662",
"t. c #445353",
"y. c #784842",
"u. c #6C5345",
"i. c #785446",
"p. c #7A5355",
"a. c #644F44",
"s. c #4A6A54",
"d. c #47775A",
"f. c #506951",
"g. c #776B57",
"h. c #675774",
"j. c #446863",
"k. c #53756C",
"l. c #636A76",
"z. c #70726E",
"x. c #545364",
"c. c #844E3A",
"v. c #8B553D",
"b. c #B76A3D",
"n. c #82377D",
"m. c #895444",
"M. c #8B594A",
"N. c #9D634F",
"B. c #9D6D55",
"V. c #996A58",
"C. c #8A6A53",
"Z. c #A2674D",
"A. c #B96D49",
"S. c #BE734E",
"D. c #A76C53",
"F. c #A8755B",
"G. c #BA7659",
"H. c #AE7153",
"J. c #987168",
"K. c #AF726D",
"L. c #C37148",
"P. c #C57A54",
"I. c #3F8169",
"U. c #44826C",
"Y. c #54836C",
"T. c #5B8A74",
"R. c #559E7F",
"E. c #599778",
"W. c #498C78",
"Q. c #658477",
"!. c #64957D",
"~. c #61826D",
"^. c #51A37F",
"/. c #B88774",
"(. c #AC926E",
"). c #BFA17E",
"_. c #97876C",
"`. c #CB8668",
"'. c #D68E6A",
"]. c #C5987D",
"[. c #DA9A74",
"{. c #E39C78",
"}. c #CCA17D",
"|. c #8D3B8D",
" X c #8C3588",
".X c #93388D",
"XX c #91388A",
"oX c #8E3892",
"OX c #923A92",
"+X c #857C94",
"@X c #569984",
"#X c #669988",
"$X c #678F80",
"%X c #54A383",
"&X c #5BA285",
"*X c #5CAD8B",
"=X c #58A889",
"-X c #57B58C",
";X c #5DAC92",
":X c #5CB594",
">X c #55BE95",
",X c #5ABC95",
"<X c #56BF98",
"1X c #5DBC9B",
"2X c #5FB79A",
"3X c #64AD8C",
"4X c #61B18C",
"5X c #63B292",
"6X c #6BB195",
"7X c #63BC9B",
"8X c #64BA93",
"9X c #6DAC91",
"0X c #69BFA1",
"qX c #4EC596",
"wX c #45CA97",
"eX c #4CC896",
"rX c #4FC698",
"tX c #4DC999",
"yX c #45C795",
"uX c #51C597",
"iX c #59C296",
"pX c #50C896",
"aX c #50C598",
"sX c #5AC29B",
"dX c #51C99C",
"fX c #5AC8A0",
"gX c #63C1A0",
"hX c #BCA591",
"jX c #9497A9",
"kX c #A8AAB6",
"lX c #CA9686",
"zX c #D7A281",
"xX c #D6B095",
/* pixels */
"aXrXaXrXaXaXuXrXaXrXrXaXrXaXrXuXrXrXrXaXuXrXaXuXuXuXuXuXaXrXrXaXrXuXrXrXaXuXaXpXaXrXaXrXaXrXuXuXrXrXrXaXrXqXaXaXrXaXaXaX",
"rXaXrXuXrXrXaXrXrXuXuXrXrXuXaXrXaXaXuXaXrXuXaXaXeXuXuXeXaXuXuXrXaXaXrXuXqXaXuXdXaXaXaXrXrXuXaXrXrXrXuXaXaXaXqXaXaXaXqXaX",
"aXrXaXaXaXaXaXrXrXrXaXrXaXaXaXuXaXaXaXrXrXuXuXuXuXuXrXuXrXuXrXuXuXrXaXaXaXeXaXpXuXuXaXaXuXpXrXrXuXuXrXrXaXqXaXqXaXqXaXaX",
"rXuXuXrXrXrXaXaXaXaXrXuXuXaXaXaXaXaXaXaXrXrXrXrXrXrXrXrXrXrXaXrXrXrXaXrXuXuXuXeXuXuXaXqXeXuXuXuXrXrXuXrXaXaXaXaXaXaXaXqX",
"uXrXqXrXrXrXqXqXuXrXrXaXaXuXrXuXaXrXaXrXrXrXrXrXrXrXrXrXaXaXuXrXuXrXaXrXqXuXqXuXeXuXpXuXuXeXuXrXrXaXaXaXaXaXaXaXrXrXaXrX",
"uXuXqXqXrXrXrXaXrXrXrXaXrXrXuXuXaXaXaXqXrXrXqXqXrXrXrXrXaXrXrXaXrXrXuXrXuXuXuXrXuXeXuXuXuXpXrXuX>XaXrXaXaXqXaXrXaXrXaXaX",
"qXqXqXeXqXqXrXaXuXrXrXrXrXuXuXrXaXaXrXaXuXuXpXqXrXrXrXuXrXuXaXrXrXuXuXrXuXuXrXuXuXqXuXeXuXuXrXrXrXrXaXqXrXaXqXaXrXrXaXrX",
"iXuXqXqXeXqXqXuXuXrXeXrXrXrXrXrXaXaXrXaXuXqXpXuXrXuXrXaXaXrXaXaXrXuXrXuXrXrXaXrXrXuXuXrXuXrXuXrXqXrXaXrXaXaXrXaX>XqXaXaX",
"uXuXpXeXrXrXrXuXuXuXrXrXpXpXuXrXrXaXrXuXeXuXrXrXuXuXuXuXaXrXrXuXrXuXrXuXrXuXrXuXaXaXuXrXaXaXaXaXrXaXaXrXaXqXaXaXrXaXaXaX",
"pXuXqXpXtXuXrXuXaXdXrXrXpXpXiXiXaXwXrXrXqXwXeXeXyXrXaXuXtXrXrXuXaXrXrXrXrXrXrXrXaXrXrXrXaXaXrXrXaXrXaXaXaXaXaXrXaXrXaXqX",
"uXuXuXeXeXaXaXaXrXrXdXrX8XI.d.9XgXdXqXdXeXyXaXrXuXeXuXrXaXrXaXaXrXrXrXaXuXrXrXrXuXrXuXrXaXaXaXrXaXaXqXaXqXaXaXqXaXaXaXaX",
"uXuXeXeXrXaXaXrXrXrXyX-XI.E T f.d.5X<XuXsXuXdX>XuXuXrXrXaX>XaXrXrXrXaXaXiXrXrXrXrXrXuXaXuXrXrXuXaXqXaXaXaXaXaXaXaXrXaXqX",
"uXpXeXrXeXuXrXrXtXqXpX3X* C.J.R l f.d.r.*X1XiXaX<XrXrXrXaXaXaXrXdXuXaXrXrXrXqXqXrXaX<XiXrXrXrXrXaXqXrXaXrXaXaXrXaXqXaXrX",
"uXeXeXeXrXuXrXrXrXwXpXR.* i.H.F./ v : J d.=XiXrXrXrX<XrX<X<X<XiX,XaXiXrXqXtXqXrXrXaXaXrXrXrXrXaXaXaXrXaXaXqXaXaXaXaXaXrX",
"qXeXrXqXrXuXaXrXtXtXyX8XU Y ^ c.! ! / V.Z d.-XwXrX<XgX@XI.U.U.U.I.=XiXdXwXrXrXrXaXaXrXrXaXaXaXrXaXaXaXaXaXaXqXaXqXrXrXrX",
"rXeXrXrXuXuXuXrXtXaXdX>XiXU H L T S F v.V.l E.<X<X@Xk.0.5 6 8 8 6 t.U.%XsXrXaXiXiXrXrXwXuXaXuXaXaXqXaXqXaXaXaXqXaX>XrXaX",
"eXrXrXaXrXiXuXqXrXaXiXaXpXiX8XY.- % b Z.F.l E.7XW.` z ..2.2.2.<.2.X.d 9.@XsXiXiXrXqXwXrXrXaXaXaXaXrXaXrXaXrXaXrXaXqXaXqX",
"eXrXrXaXrXiXuXqXeXiXsXaXiXW.Y.H v b Z.F.B.: @XW.` +.*.5.XXXXOX|.|.4.>.x 9.%X<XdXrXqXrXrXaXaXaXaXaXaXrXaXaXaXaXrXaXaXaXaX",
"aXaXuXrXuXuXpXqXeXpX>X5XY.J > F.H.(.Z.M.E L !.f _ ,. X|.OXOXOXOX.X|.5.&.r e.,XtXrXaXaXaXiXrXrXuXrXrXrXrXrXrXaXaXaXaXaXrX",
"aXaXuXrXeXrXeXeXrXwXiXY.J B.H.B.c.m.Y J L !.Q.' O.5.|.|.oX.X.X.X.XOX|.4.[ 0.=XaXrXrX<XaXaXwXrXrXrXrXrXrXrXaXaXaXrXqXrXaX",
"dXaXaXaXqXqXeXqXrXrX:X& ~ N.M.R l H P k.k.Q.h -.%. X.X XOXOXOX.X.X.X.X4.$.h r.1X<XrXuXuXuXeXtXrXrXrXaXaXaXaXaXaXaXaXaXaX",
"aXaXuXrXqXrXpXrXrXdX:X: Q y.# k !.9X$XH - X 9 ..:.3..X XOXOX.X.X.X.X X<.#.r j.7XaXyXqXpXuXrXrXrXrXrXrXaXaXaXrXrXaXrXaXqX",
"rXuXrXrXrXrXaXrXrXiX5X& R i.Z z.!.~.J Q u.; X.;.:.:.n. X X|..X.X X X1.;.&.a j.#X>XuXeXuXuXiXtXrXaXaXaX<XaXrXrXqXqXaXaXaX",
"eXqXyXrXrXrXrXaXaXuX,XG E u.V.v ; B C.~ S q ..o.;.:.<.,.4.5.n.n.1.,.;.&.&.>.z r.>XyXyXuXuXpXrXtXaXaX<XaX>XaXrXaXaXaXaXqX",
"rXqXeXrXaXrXrXaXrXrXiX*XK E c.Z.Z.N./ B # 9 | %.,.@.| 6.>.O.O.| 4.2.O.O.*.>.t j.7XeXeXeXuXpXaXuXaXaXuXaXaXaXuXrXrXaXaXaX",
"eXqXtXuXrXdXrXaXrXiXaX>X4XK Y W c.c.B - 0 a @.%.O.i , jXh.s i e +Xl.4 ) +.+.) j.7XeXtXeXeXqXaXuXaXuXeXrXuXuXuXuXaXrXqXaX",
"rXrXrXtXrXrXaXaXaX<XiXdXiX3X- A m S @ z.z X.{ ] e 1 < kXl.z z z jXl., 7 w | _ j.;XsXqXeXeXyXpXiXuXuXrXrXrXuXuXuXqXaXaXaX",
"eXtXrXrXrXaXaXaXaXaXdXyXrX3X- y.m.! O     X.*.| e 4 o kXl.z 6 z jXl.4 4 ) | >.) 9.gXiXiXiXqXuXeXaXaXrXeXeXpXuXdXaXaXrXrX",
"rXrXqXaXaXaXaXqXrXuXaXwXaXE.l m.m.m B v @ a %.%.w 8 o +Xt., , 1 z.x.4 , ) &.&.u 0.3X&X3X^.^.pXeXrXrXaXrXqXuXuXuXaXaXaXaX",
"aXrXaXaXaXaXaXaXrXrXdXyX*XH g.[.'.c.K.lXB + } #.{ , e 6 6 e 4 4 5 4 8 y | #...x @ * f.s.= q.-XtXqXaXsXaXuXuXqXrXaXrXqXaX",
"rXaXqXaXuXqXaXrXrXtXqXsX3Xk D.{.'.m K./.o.q 7 ..2.X.8 8 , 4 1 < 5 4 u #.2.M 8 . ^ xXi.^ hXg.H *X<XdXsXiXaXrXrXrXaXaXqXaX",
"rXrXrXuXqXrXrXrXtXaXaXiX4Xk /.{.L.m b q q u 7 X.$.2.) 8 2 1 4 < 1 4 ..<.#.u X O / }.v./ zXB.; 8.*X<XaXrXrXrXeXrXqXaXaXaX",
"rXrXrXrXrXrXrXrXrXrXuXiX*XP _.`.H.F q @ 9 p ( w { @._ y 8 , 4 4 8 a ..$.p 0 - v m P.A.b.S.P.lXz.7.pXdXeXeXeXtXaXaXuXuXrX",
"rXrXrXrXqXrXrXrXrXqXuXsX<X5Xk b S V #   r p ( ( s s 7 9 t 8 7 9 u s s s s + p.lX`.L.A.L.L.G.lXg.7.<XpXqXpXuXuXaXaXuXrXrX",
"yXrXyXrXtXrXrXuXrXrXaXiX>X*X& B V S @ 3 X i ( ( ] a y q q v ; v N p p ( a q i.lX`.L.L.L.A./ & P ,XaXrX<XuXuXuXuXrXaXaXaX",
"aXwXqXrXrXrXrXaXrXwXaXuXaX:Xg Z V V   T.K z ) O.*.@.:.M M.(.(.(.~ } &.$.&.M q Q B.D.G.A.D.Q U -X>XdX<XdXuXuXaXaXaXrXuXrX",
"rXrXrXrXrXrXrXaXaXrXaXrXyX*Xg V S B   E.#X7.6 X.&.>.,. .C n v b C } >.>.%. .0 - > Q B.D.^ I 4XpX<XyXdXrXrXqXqXrXuXrXaXrX",
"qXrXaXuXrXrXrXuXaXaXaXrXaX:Xd j V j   %X1X5Xf ( O.>.%.#.J.].].].p.;.%.%.| 9 < 9.9Xq.& & q.4XuXuXdXdXrXrXqXqXrXqXaXaXaXrX",
"rXuXuXaXrXrXrXuXaXaXrXrXrX-XG & h - 3 =X<X7Xf y ] ] ] M M $ O v M ] { ( ( 4 e.2X>X-X4X:X:XiXaXtXdXrXrXrXrXrXrXaXrXaXrXaX",
"qXuXaXaXrXrXrXrXaXrXwX>XrXsX%Xg = g W.1X<X1Xf y ] M ( ( a 7 @ 9 p ] ( ( ( 4 e.>XwXwXeXuXrXdXrXdXdXrXrXrXrXrXrXaXrXaXuXrX",
"aXaXaXaXrXrXrXaXaXrXaXaXqXqXiX%X&X%X:X<XsX1Xf r p ( ( p i 8 , r ( { ( ( ( 5 e.fXwXeXuXdXqXaXdXsXqXrXrXaXrXaXaXrXaXqXrXaX",
"tXrXaXuXuXrXrXrXrXrXaXaXaXyXrXaX<X>XsXdXfX1Xf ' ( ( ( p u 2 . 9 y ( ( ( { t e.1XaXiXiXaXrXqXrXrXaXqXaXaXaXaXaXaXaXaXaXaX",
"rXrXuXaXrXrXaXaXrXrXaXaXrXrXwXdXrXaXaXdXaX2X0.' X.p ] ] u 0 , 4 i ( ( a _ d r.<XdX<X<XaXqXqXrXrXaXaXaXqXaXaXaXaXaXqXaXrX",
"rXrXrXaXrXrXwXrXrXuXaXiXrXrXrXrXrXrXrXrXrX1X@X` x $.} .._ z < z _ _ +.-.x 9.;XrXaXdXaXaXqXrX<XrXaXaXaXaXaXaXrXaXaXaXaXaX",
"tXrXrXrXrXrXrXqXrXuXrXrXrXaXuXaXaXaXrXtXyXaX7X&X0.< 1 d d e.#X9.3 3 3 3 9.6X<XtXwXqXrXrXaXaXaXaXaXaXaXaXrXrXrXrXqXaXaXqX",
"rXrXrXrXrXrXeXrXrXrXuXrXrXaXaXaXiX<XaXyXeXtXtXiX=X=X@XR.^.:X7X=X@X&X&X=X2X1XfX>XwXqXrXiXrXaXrXiXaXaXqXaXrXrXrXrXaXaXaXaX",
"rXrXuXuXrXrXrXrXuXaXrXrXrXrXuXaXaXiXrXqXrXyXyXaXaXaXaXaXaXuXuXuXuXiXaXiXdXiXrXrXrXrXqXaXaXaXrXuXqXaXrXaXaXrXrXrXaXaXaXqX",
"rXrXuXrXrXrXrXrXuXuXrXrXrXrXrXrXaXaXiXiXiXaXuXdXrXaXaXaXaXeXuXuXuXuXuXrXrXrXrXrXrXrXaXrXuXrXuXrXaXaXaXrXaXrXrXrX>XqXaXaX",
"rXrXaXaXrXrXrXrXrXaXrXrXrXrXrXaXqXaXaX1XiXiXiXqXaXaX>XaXaXaXuXqXqXuXeXqXqXuXuXaXaXaXaXaXqXaXqXaXaXaXaXqXaXqXaXaXrXaXrXqX",
"rXrXrXaXrXrXrXrXuXrXaXaXaXrXrXrXaXaXaXuXuXaXuXaXuXrXaXiXiXuXuXqXuXeXeXrXeXuXuXrXaXaXaXaXaXaXaXrXaXrXaXqXaXaXaXaXaXaXaXaX",
"rXuXuXuXrXrXeXeXuXaXuXaXrXrXrXrXrXrXrXrXrXrXaXrXrXrXrXrXuXuXrXuXuXrXrXrXaXpXaXuXaXrXaXaXqXqXaXaXaXaXrXaXaXaXaXqXqXaXaXaX",
"yXuXaXrXrXrXrXrXaXuXaXrXuXaXaXrXrXrXrXrXrXrXtXrXrXtXrXeXeXpXrXpXuXrXuXuXpXsXaXaXaXaXaXaXaXaXaXqXqXaXaXaXaXrXaXaXrXaXrXqX",
"rXrXrXaXrXrXtXrXrXaXuXaXuXrXuXaXrXrXrXrXrXaXaXrXaXrXrXrXyXrXqXqXaXaXaXaXiXaXaXaXaXaXqXqXqXaXaXaXrXrXrX>XrXqXaXaXaXqXaXaX",
"rXrXaXrXrXrXeXrXaXrXrXaXaXrXuXrXrXrXrXrXuXuXaXaXaXuXuXaXuXrXrXaXaXaXaXrXrXaXaXaXaXaXaXaXaXaXaXqXaXrXrXaXaXaXaXrXaXqXaXaX",
"rXrXuXaXrXrXrXrXrXaXrXrXaXaXrXaXrXrXrXrXrXuXaXaXuXrXrXaXaXaXaXaXrXrXrXrXrXrXrXrXrXrXaXqXaXaXrXaXaXaXaXrXaXaXrXaXaXaXrXrX",
"rXrXrXrXrXuXrXrXuXaXrXuXaXrXuXrXrXrXrXrXrXaXaXaXrXrXrXaXuXuXrXaXrXrXrXrXrXrXrXaXaXqXaXaXaXrXaXaXrX>XrXaXqXqXaXrXaXrXaXrX",
"rXqXeXrXrXaXuXuXuXaXrXuXuXrXaXaXaXrXaXaXaXaXqXaXaXaXaXqXaXrXaXqXaXrXaXaXuXrXaXqXaXuXrXaXqXaXaXrXrXrXrXaXaXaXaXaXaXaXaXaX",
"eXqXrXuXrXuXrXeXuXuXrXuXrXrXrXaXaXrXuXrXqXaXaXaXqXaXaXaXrXaXaXaXaXaXrXrXaXqXrXaXaXaXaXqXaXqXaXrXrXrXrXrXaXqXaXqXqXaXaXqX",
"rXqXrXrXuXrXuXpXuXrXrXaXrXuXaXrXaXqXaXaXaXaXaXrXqXaXrXaXaXaXaXqXaXaXaXaXaXaXaXaXaXaXaXaXaXaXaXaXaXaXaXaXaXaXaXrX>XqXrXaX",
"eXrXrXrXrXuXrXuXuXuXaXrXaXaXrXuXaXaXaXqXqXrXaXaXaXaXrXaXqXaXaXaXqXrXrXaXaXaXqXaXqXaXaXqXaXaXqXaXqXaXaXqXaXrXaXaXrXaXaXaX"
};
