/* XPM */
static char *wall[] = {
/* columns rows colors chars-per-pixel */
"60 60 219 2 ",
"   c #171B35",
".  c #1A1E3B",
"X  c #131E2A",
"o  c #1B223C",
"O  c #162A36",
"+  c #0D3135",
"@  c #1C333B",
"#  c #1D3C3E",
"$  c #153738",
"%  c #0F3231",
"&  c #222A3E",
"*  c #20313D",
"=  c #1E2841",
"-  c #1C3945",
";  c #242A45",
":  c #262B49",
">  c #2B2E4C",
",  c #252B47",
"<  c #243244",
"1  c #233A47",
"2  c #26334A",
"3  c #2A314C",
"4  c #233E4A",
"5  c #2B3849",
"6  c #2C2E50",
"7  c #2D3354",
"8  c #2F3657",
"9  c #313554",
"0  c #343C53",
"q  c #333B5B",
"w  c #3A3D5D",
"e  c #343957",
"r  c #333B4D",
"t  c #363E61",
"y  c #1B4345",
"u  c #194A46",
"i  c #1D5354",
"p  c #1F574E",
"a  c #25434B",
"s  c #29444D",
"d  c #244B4C",
"f  c #264343",
"g  c #22544D",
"h  c #29584F",
"j  c #2B4A55",
"k  c #35425C",
"l  c #3A445D",
"z  c #3A4C5B",
"x  c #344A57",
"c  c #235352",
"v  c #245C54",
"b  c #2B5C55",
"n  c #275659",
"m  c #37595C",
"M  c #1F655A",
"N  c #236C5E",
"B  c #2A6558",
"V  c #32655A",
"C  c #364061",
"Z  c #3B4464",
"A  c #3D4A65",
"S  c #3D4568",
"D  c #3F4A6A",
"F  c #3A5467",
"G  c #275960",
"H  c #1B6F61",
"J  c #1D7267",
"K  c #236C62",
"L  c #296767",
"P  c #346B6A",
"I  c #20786D",
"U  c #25736A",
"Y  c #347468",
"T  c #356B71",
"R  c #2D7672",
"E  c #357976",
"W  c #2C6F77",
"Q  c #45565F",
"!  c #434D5E",
"~  c #404C65",
"^  c #42466A",
"/  c #434C6D",
"(  c #484D6D",
")  c #414465",
"_  c #455561",
"`  c #45516D",
"'  c #4A586A",
"]  c #444D70",
"[  c #465172",
"{  c #4A5474",
"}  c #4C5A74",
"|  c #4C5779",
" . c #4D5A7A",
".. c #475976",
"X. c #525E7D",
"o. c #515C75",
"O. c #49636A",
"+. c #417D6D",
"@. c #4E6575",
"#. c #54617D",
"$. c #5A647D",
"%. c #546B7A",
"&. c #506A6E",
"*. c #3B836C",
"=. c #2B8779",
"-. c #3A8478",
";. c #41826E",
":. c #458B76",
">. c #4B947C",
",. c #43907A",
"<. c #545E80",
"1. c #556282",
"2. c #5A6584",
"3. c #5C6985",
"4. c #5D6B8B",
"5. c #5A6788",
"6. c #587087",
"7. c #626C87",
"8. c #616E8C",
"9. c #657285",
"0. c #64728E",
"q. c #68738E",
"w. c #687B89",
"e. c #626F90",
"r. c #647392",
"t. c #697593",
"y. c #6B7A94",
"u. c #6E7C99",
"i. c #667897",
"p. c #727E9B",
"a. c #707C95",
"s. c #727EA0",
"d. c #2D8A84",
"f. c #388985",
"g. c #2E968C",
"h. c #34958C",
"j. c #3B938E",
"k. c #329B8D",
"l. c #369789",
"z. c #2F9994",
"x. c #339794",
"c. c #3A9593",
"v. c #329993",
"b. c #349798",
"n. c #329998",
"m. c #3E9891",
"M. c #35A38D",
"N. c #3AA48E",
"B. c #3AA592",
"V. c #3EA993",
"C. c #37A291",
"Z. c #468C86",
"A. c #43988D",
"S. c #549983",
"D. c #419191",
"F. c #74819D",
"G. c #79859D",
"H. c #788698",
"J. c #7D919E",
"K. c #59AD8E",
"L. c #54A68A",
"P. c #44AB96",
"I. c #57AD91",
"U. c #44B395",
"Y. c #45B399",
"T. c #4CBC9C",
"R. c #49B997",
"E. c #54B492",
"W. c #5BB392",
"Q. c #56BB94",
"!. c #52BE9C",
"~. c #5CBC9A",
"^. c #5BB998",
"/. c #55B68F",
"(. c #64BC9D",
"). c #62B599",
"_. c #7483A1",
"`. c #7885A1",
"'. c #7D8AA5",
"]. c #7E8CA9",
"[. c #50BEA0",
"{. c #4EC696",
"}. c #4CC896",
"|. c #4FC598",
" X c #4DC899",
".X c #50C597",
"XX c #50C598",
"oX c #5AC299",
"OX c #55C497",
"+X c #60C39F",
"@X c #51C3A0",
"#X c #828B9E",
"$X c #818EA9",
"%X c #828CA4",
"&X c #8493A6",
"*X c #8493AD",
"=X c #8996AE",
"-X c #8F9DAF",
";X c #8595B1",
":X c #8A96B1",
">X c #8D9CB4",
",X c #8E9CB8",
"<X c #879AB3",
"1X c #929EB4",
"2X c #939FBA",
"3X c #919DAF",
"4X c #8EA1B8",
"5X c #93A1B7",
"6X c #93A1BB",
"7X c #99A5BD",
"8X c #99A6BA",
"9X c #9EABC3",
"0X c #95A3C0",
"qX c #A4B2CA",
"wX c #A9B6CE",
"eX c #A6B6CA",
"rX c #ACBBD2",
"tX c #A1AFC8",
"yX c #B2C1D8",
/* pixels */
"XXXXXX{.XX{.XXXXXXXX|..X.X|..X|.XX.X|.|.}. X}.XXXXXXXXXXXX|.|.XX.X.X{.{..X|..X|.|. X X.XXX.XXX{.XXXX|.XX.X|..XXX|..XXX|.",
".X|..X|.XXXXXXXX.X.X.X|.|..XXXXX.X|.{.Q..X.XXX|.|.XX|.XX|.|.|.|..X.X.XOXXX.X XXX.XXXOX.X.X|..X|.XX.X.XXX|.XXXX{..X.XXXXX",
"XXXX|.XXXXXX{.XX|.|..X.X.XXX|..X|.XX|.|..X.XOX.XXXXXXXXX|..X|.|.|.|.XX|.XXXX{..X.X{.XX|.XXXX|..X|.XXXX.X.XXXXX|.XX|..X|.",
"XX{..X.XXX{.XXXX.X.X|.|..X.XXXXXXX{.{.|..X.X.X.X X.X.X.X.X.X.XOX{.{.|.|.{.XX}..X{.{.|.|.XX{.XX|..X|..X|.XXXX{..X.X|.|..X",
"XXXXXXXX|..X|..X.X.X|..X.X.X.X.XXX.X.XOX.X}..X.X.X.X}..X.X}..X.X.XOXXXOXOXOXOXOX|..XXXOXXXXXXXXX{..XXXXX|.XX|..X|..X.XXX",
".X{.XX.XXX.XXX|.|..X|..X.X.X.X.XXX.X.X}.}..XoXW.;.;.;.;.;.;.;.;.;.;.;.;.;.;.;.:.oX.XXXXXXXXXXXXXXX|.XX{..XXXXX{.|..XXX|.",
"|.XXXX{.XXXX.X|.|..X.X.X.X.X{.{.|.{.}.{..X~.:.h Q Q Q Q Q _ _ _ Q Q Q Q _ ' ' m ;.|.{.OXXX|.XXXXXXXX.XXX|..XXXXXXXXXXX{.",
"XX.XXX|.XX{..XXX.X.X|..X.X.X}.}.}.}.OXK.,.g O.&X3X>X>X>X4X1X>X1X>X-X4X4X>X>X3XH.V !.|.XXXXXX{..X.XXXXX|.XXXX.X|..X|..XXX",
"{.XX.XXX|..XXX.X|.|.XX.X.X.X}.OXoX+X;.b ' #X1X6X5X6X6X2X2X2X2X2X2X2X6X6X6X6X6X>X_ S.OX.X|..XXXXX|..X|.{.XX.X|..XXX|..X.X",
"XX|.XXXX.X|.|..X.XXX.X|..X.XOXK.>.u &.&X1X2X7X6X2X6X6X6X6X6X6X6X4X6X6X6X6X6X6X4XJ.u (..X.XXX|..XXX.XXXXXXX{.XXXX{.XX|.XX",
"XX|.|..XXXXX|.XX|..X.X|.}.}.E.+.&.J.1X7X7X2X,X2X2X6X6X&Xy.`.].4X6X2X6X6X6X6X6X4XH.m :..XXX.X{.XX.X|.XX.XXXXXXX.X|.XXXXXX",
"XX.X{.XX.X|..XXXXX|..XXX{.}.K.m eX8X5X6X6X6X>X*X'.7.p.u.=X>X;X].2X2X6X2X6X2X6X].F.#Xb Q.{.{.XX|.XX.X|.XXXXXX{.|.XX.X.X|.",
"|..XXXXX{.XX|..XXX.X|..X|.{.K.s J.eX7X2X=X&Xy.0.`.<X6X4X6X6X6X].*X,X6X2X2X7X,Xr.6X1XO.>.OX{.|.|.{..XXXXX.XXXXX.XXX{..X|.",
".XXX.X|.XXXX.XXX.X|..XXX{.|.K.a q.'.qX:X0.3.*X,X6X2X2X2X6X6X0X0X*Xp.;X2X2X2X'.'.6X6Xy.g Q.|.|..X{.|.{.XXXX|.XXXX{.XXXXXX",
"|.{.XX.X.X|.XX|.|.|..X.X{.{.K.s r.r.*X0. .>X6X4X6X2X6X5X6X6X6X6X2X'.4.r.'.1Xu.:X>X%X' % ^.XX XOX{.|.|.XX.XXX|.{.XXXX.X|.",
"XXXX.X|.{.XXXX.X.XXXXX|.{.{.K.d r.r.'.#.` 6XyXrX5X6X6X5X6X4X6X4X6X6X`.> X.e.8.4.<.{ l % W.}. XOXXX|.{.XX|..X.XXXXXXX|..X",
"XXXXXXXX.XXX{.XX.X|.XX{.}.{.K.d r.r.i.`.D i.;X;X7XyXtX8X4X6X5X5X2X0X9XX.[ ) S / / ] C + ).}.{.XXOX{..XXXXXXXXXXXXX{.XXXX",
".X|..XXX|.XXXX.XXXXXXX.X.X.XK.d r.r.r.'.D e.r.8.i.`.tXrXwX5X5X6X0XtX7./ w S t ] ^ ] C O ).OX{.|. X.XXX{.{.{.XX.XXXXXXX{.",
"{.XX{.XX.X|.XX|..X{.|.|..XoX>.s r.r.r.e...4.r.r.i.0.i.].8XyXtX9X9X$./ q q Z t / ] ] t = v W.oX.X|.XX.XXXXXXXXXXXXX{.|..X",
".XXX|.XX.XXXXX.X.XXX X X~.S.x ! r.r.r.i.4.6.r.r.0.r.0.0.y.'.tX9X7./ / 8 : t t / q q 7 7 x B W.OX}.|..XXXXX.X.XXXXXXX.XXX",
"|.XX|..XXXXX|..X.X.X|.|.>.b w.#.3.r.r.r.<.4.r.r.r.r.r.r.0.0.y.6.D D ] q . Z 4.5.5.7.4.l A j h W..X.X.X.X{.|.XX.X.XXX{.XX",
"XX.X{.XX{.XX|..X.X.X|.OXu 9.0.1.X.r.r.r.1.4.r.r.r.r.r.r.r.0.0.1.] ] ] q = D ] D | 1.1.Z ( / 4 *..X.X.X.X|.|.XX|.|.XXXXXX",
".XXX.XXXXXXX|.XX|.{.{.^.# 9.e.<./ 7.r.e.1. .e.r.r.r.r.r.r.r.r.#.D ] ] q : ] D D D D D q ( ^ : Y oX.X.X.X X|.|.XXXX|..X|.",
"|.XX|.XX|..X|.|.|.{.XX).- / ] Z Z } r.y.<.D 1.e.r.r.i.r.r.r.r.1.D ] ^ 8 : D ] ] ] D [ k ^ 7 6 O L..X.X.X{. X|.XXXXXX.XXX",
"XX{..X{.XX{.{.XX|. X.X*.j ~ ^ t S | q.r.<.5.8.<.5...<.4.i.r.e.<./ D t S e q ] D [ / / ~ > > 6 & b oX.X}.}.{.{..XXXXXXXXX",
"XXXX.X.XXX|.{.XX X}./.b x ( ^ t S ^ <.1.5.r.r.8.D 5.6.S <.5.r.<.Z S 2.X.9 9 / D / / / ^ ; 3 6 > # L.OX}..XOXXX{.}.XX.XXX",
"XX|..X{.XXXXXXOX.XOX>.* / ( S t t ^ ] 2.r.r.e.t.e.<.r.5.Z S ..| <.s.2.( : ; q D ` D / Z . > > > @ V +X}.{.oX.X|.{.XXXX{.",
"XXXX.X.XXXXXXXXXOXoX>.3 ( ] D t D t / *X>X,X$Xa._.i. .e.e.<.1.i.s.e.( ] : 6 S q C D / Z = 6 > > * $ L.OX|.XXXXXX|.XXXXXX",
"|.XXXXXXXXXX X|.}./.b 5 / ] ^ t ] D Z 7X2X2X7X1X6X>X . .e.r.1.5.e.[ ] ^ : 8 ] D S C k [ l ; > > 3 & V oX{..XXXXX|..XXX.X",
".XXX|.XXXXXX|.XX{.L.@ > 7 q S t S D k :XrX9X8X8X1X,XF.F.1.4.e.D ] ^ D ] : 8 / ] D [ #.].G.) > > 3 * @ +X|.{..XXXXXXX|.XX",
".X|.XX|.XXXXXXXXQ.B ; > : t { $X2X2Xt.3.p.7XwXeX1X1XG.4Xu.<.4.D ] D ( / ; 7 S ] [ _.*X4X1X1X( ; < 5 @ (.}..X.XXX.X.X{.XX",
".X.X|..XXXXXXX|.A.u < 2 k u.:X6X2X6XF.o.8.0.H.6XwX=X>X,X,Xs.<.D ] ] / ^ : o Z D 1.p.>X4X1X%Xq.> ; > @ Y OX.X.XXX|.XXXXXX",
"XX|.|..XXXOX!.N.-.4 2 7 7.2X2X2X2X5XF.5.2.r.4.1.%.=XwX8X1X2Xt.q ] / ( t . . t ^ ] t.p.>X$X;X;X( > > * b OXOXXXXX|.|.XX.X",
"XX.X.XXX!.!.k.l.W = 8 ^ X.%X6X2X6X2XF.0. .| #.5.r.0.F.9XwX2X2.q ] ] ^ > o   > 9 S |  .i.:X6X;X8.> > & V OX{.OXOX.XXX|.XX",
".X.X.XXX@XT.k.h.P = F / D  .$X6X2X;Xr.e.1.[ r.0.r.0.0.y.<X=X[ C ) ( w > . & > > ] e.r.i.<X,X;Xr.X.> * B oX}..X.X.XXX.X|.",
".X.X|.XXY.k.k.c.L 5 A / [ D | '.,Xp.r.e.0. .r.r.r.0.0.0.3.D / C ^ ( > > .   : 9 <.t.r.r.i.;X*Xr.t.$.@ Z.Q.}..X.X|..X.XXX",
"{.XX|.|.P.k.c.f.# F G S D D [ | s.r.e.r.t.^ <.q.r.r.r.r.5.^ [ C t w > > , 9 ) ~ #.r.r.r.r.i.].r.r.q.1 Z.P.|.{.{. X.X{.XX",
"XX.X|.|.M.x.b.f.y W f.W F D / q S <.i.t.<.e X.t.0.r.r.r.#./ / ] 7 6 > e a.1X2Xs.6.8.8.r.e.r.i.4.7.@.a P m.XXOX{.}..XXXXX",
"XXXXXXT.k.x.c.h.J h.x.h.W A 9 > S <.5.<.] t X.q.0.r.r.r.D D ` D 7 : : o.1X2X2X2X,X#.8.r.r.e.1.] [ ^ l i x.P.!.{.}.|.|.|.",
"XXXXXX[.k.x.x.x.d.c.g.x.T 4 2 > t ^ ^ ^ ] 8 X.q.r.r.0. .C D [ D 7 6 t s.2X2X2X2X:X2.] | <.] Z t w ) Z d m.h.P.!.XX X|.|.",
"XXXXXX[.g.b.n.z.c.x.x.x.L + O   r ` ^ / e 6 w q.r.<.X.4.] k q A t 7 ^ 1.].*X*XF.y.r.e.C D / 7 6 6 9 9 a E -.f.!.XX|.|.|.",
"XXXXXXXXz.x.n.z.c.x.z.d.f.U H L y 1 1 - o & r o.#.7.e.r.] / Z 7 q > Z ` [ / ` 4.r.r.r.[ q C 3 6 6 | t.! m F K I.OXXX|. X",
"XX.XOXT.k.v.x.x.z.x.z.b.b.g.d.H N p g s * O X 0 } 0.0.X.] / ) ` 2.G.F.[ / / [ 8.r.r.r.8.5 2 2 [ _.,X6X6X1X1X%.B E.|.XX|.",
"|..X.X@XP.k.x.x.x.b.z.z.b.x.k.=.N B d f ' $.! X r %.q.X./ A / %X>X2X2X'.{ D 1.r.r.r.r.1.@ O 1 &X6X,X0X6X2X2Xq.s *.!.XX.X",
"|..X.X{.Y.k.x.x.x.b.x.x.b.z.x.f.u s %.&X5X5X8Xw.5 @ z ' A ` %X7X6X5X6X6X].X.2.r.t.q.#.- i V j 1X1X6X6X6X,X*X} s -.oX.X.X",
"|..X.X.XXXV.k.x.x.x.x.x.x.x.v.L &.&X1X1X6X6X1X1X! f d O [ >X2X5X5X5X5X6X=X..[ 1.$.$.a v K B y 9.*X;X*X=X4.} D a ,.OX|..X",
".X.X}..X|.T.k.x.x.x.x.x.x.v.x.L %.#X2X6X6X6X5XG.r g N # H.2X2X2X6X6X2X,X0./ 8 = * @ c K H K B y x 9.w.0.9.} = P E.XX}..X",
".X.X.X.X{.{.U.k.z.n.b.x.x.z.x.Z.n 3.y.:X2X>XF.' 1 p N @ 9.,X2X2X6X6X:X3.` A @ c B B K J J I I L T u - - - G f.h.U.|. X}.",
".X|..X{..X.XXXU.v.z.v.x.v.v.z.x.Z.n 1.w.'.$.F 4 c N N $ F H.$X7X2X>X2./ _ 2 v K H H I R d.v.x.m.D.c.D.D.D.x.v.M.R. X}.{.",
".XXXXXXX{.{.|.|.Y.v.v.v.v.x.z.v.h.D.n @.` x 4 c N U U B $ z 9.y.u.7.@.s + n U I g.d.l.h.v.v.v.x.x.x.v.x.x.v.k.N.XX{.}.{.",
"XXXXXX.XXX|.|.XXXXY.k.x.z.z.z.v.x.x.j.i i i K R =.x.k.h.=.v x z z s - u Y =.l.l.k.x.x.v.v.x.v.v.x.x.x.n.b.v.V.|.OX|.{.XX",
"XX{.XX|.XXXXXXXXXXOXR.V.k.v.k.v.x.x.x.c.c.c.x.x.z.x.x.k.h.f.R W R E -.d.l.l.x.x.z.v.x.n.v.n.x.v.x.x.x.n.z.C.!..X.XXXXX{.",
".XXX|..XXX.XXX.X.XOXOX[.[.V.k.k.v.x.x.x.b.c.c.b.v.x.x.x.k.v.k.k.v.x.v.v.x.z.x.x.b.x.b.x.x.b.x.x.x.v.x.v.k.P.@XXXXXXXXXXX",
"|..X|.XX|.XXXXOX.X.X|.XXXXOXR.V.k.k.x.x.x.x.x.v.x.x.b.b.v.n.v.n.x.b.v.n.z.x.x.x.x.v.v.v.x.x.x.x.k.v.l.B.R.XX|.XX|.XX.X|.",
"XX|..X|..X.XXXXX.XXX|.|.|.|. X|.T.N.B.z.k.z.k.x.v.x.x.b.n.b.c.x.v.x.c.c.c.b.b.b.v.x.v.z.g.C.B.C.N.Y.[.XXXXXXXX|.|..XXXXX",
"XX.X.X|.XXXX.X.X|.|.|.|.|.|.{.|.XXXX|.Y.U.U.k.k.k.k.v.v.n.v.v.v.k.k.k.v.v.g.x.x.v.k.B.Y.Y.T.@XXXOXOX X XXXXXXX|.XXXX{.XX",
".X|..XXXXX|.|.|..XXXXX|.XX.X.XXXXXXXXXXXXXXX{.R.T.T.M.M.N.M.M.C.M.C.C.M.M.M.U.[.T.T.|.|.|.|.|.{.XX XXX|.XXXXXXXX|.|.XX{.",
"|..X|.XXXX.X.X.X|.|.|..X.XXXXX|.XXXX|.|.XX{.|.|..XXXXXXX@X@X@X X@XXX@X@X@X@X|. X|.|.|.|.XXXX.XXXXXXXXXXX|.XX|.XXXX.XXXXX",
"XXXX.X|.XX|..X|..X|.XX.X.XXX|.XX|.XXXXXXXXXX{..X.X.XXX|.XXXX|.|.XXXX|.|.XXXX|.XX|.XX.X|.XX|.XXXX XXXXXXXXXXXXXXX{.XXXXXX",
"|.|..X.X.X|.XX.X.X.X|.XX|.XX.XXXXXXXXXXXXX{..X.X.X|.|.|.XX|.|..X XXX|.|.XXXXXXXXXX|.XXXX|.XXXXXXXXXX|.XX|.XXXXXXXXXX.X{."
};
